<svg id="Layer_1" data-name="Layer 1" xmlns="http://www.w3.org/2000/svg" viewBox="0 0 246 66.97"><title>SoFi logo - Brandlogos.net</title><path d="M496.41,350.62A10.59,10.59,0,1,0,507,361.21,10.72,10.72,0,0,0,496.41,350.62Zm0,2.72a7.56,7.56,0,1,1-7.56,7.56,7.49,7.49,0,0,1,7.56-7.56M287.32,378.45c-9.68-4.24-12.71-6.05-12.71-9.68,0-4.84,4.54-6.35,8.77-6.35,4.54,0,9.38,2.42,9.38,9.08a.8.8,0,0,0,.91.91h10.59c.3-.3.61-.61.61-.91,0-12.1-8.77-20.88-21.48-20.88s-20.88,7.26-20.88,18.15c0,13,9.68,16.94,19.06,20.58l.61.3C291,393,294,394.49,294,398.73c0,5.75-6.05,6.66-9.38,6.66-6.35,0-11.2-4.54-11.2-10.59v-.61a.8.8,0,0,0-.91-.91H261.91a1,1,0,0,0-.91.91v.91c0,13.31,9.68,22.39,23.3,22.39,13,0,21.79-7.56,21.79-18.46.3-11.2-5.45-15.13-18.76-20.58Zm112.86-26.93h-35.4a1.3,1.3,0,0,0-1.21,1.21v62a1.07,1.07,0,0,0,1.21,1.21h9.68a1.3,1.3,0,0,0,1.21-1.21V389.65h21.79a1.07,1.07,0,0,0,1.21-1.21v-9.08a1.3,1.3,0,0,0-1.21-1.21H375.68V363h24.51a1.07,1.07,0,0,0,1.21-1.21v-9.08a1.3,1.3,0,0,0-1.21-1.21Zm13,12.41a6.72,6.72,0,0,0,6.66-6.66c.3-3.63-3-6.66-6.66-6.66a6.72,6.72,0,0,0-6.66,6.66A6.52,6.52,0,0,0,413.2,363.93Zm5.75,6.05a1.11,1.11,0,0,0-.91-.3h-9.68a1.3,1.3,0,0,0-1.21,1.21v43.87a1.07,1.07,0,0,0,1.21,1.21H418a1.3,1.3,0,0,0,1.21-1.21V370.89a1.11,1.11,0,0,0-.3-.91ZM346,393c0,6.66-5.14,12.1-11.5,12.1S323,399.63,323,393s5.14-12.1,11.5-12.1S346,386.32,346,393Zm-11.8-23.9a24.21,24.21,0,1,0,24.21,24.21,24.28,24.28,0,0,0-24.21-24.21Z" transform="translate(-261 -350.51)" style="fill:#00a2c7"/><path d="M505.7,378.81a10.59,10.59,0,1,1-2.64-3.18A10.49,10.49,0,0,1,505.7,378.81Z" transform="translate(-261 -350.51)" style="fill:#00a2c7"/><path d="M505.68,401.51a10.59,10.59,0,1,1-2.64-3.18A10.49,10.49,0,0,1,505.68,401.51Z" transform="translate(-261 -350.51)" style="fill:#00a2c7"/><path d="M473.72,373.31a10.59,10.59,0,1,0,10.59,10.59A10.72,10.72,0,0,0,473.72,373.31Zm0,3a8.7,8.7,0,0,1,5.45,2.12,7.29,7.29,0,0,1,2.12,5.45,7.49,7.49,0,0,1-7.56,7.56,8.7,8.7,0,0,1-5.45-2.12,7.29,7.29,0,0,1-2.12-5.45c-.3-4.24,3.33-7.56,7.56-7.56" transform="translate(-261 -350.51)" style="fill:#00a2c7"/><path d="M455.24,374.13a10.59,10.59,0,1,1-4-.9A10.49,10.49,0,0,1,455.24,374.13Z" transform="translate(-261 -350.51)" style="fill:#00a2c7"/><path d="M478,351.45a10.59,10.59,0,1,1-4-.9A10.49,10.49,0,0,1,478,351.45Z" transform="translate(-261 -350.51)" style="fill:#00a2c7"/><path d="M455.27,351.42a10.59,10.59,0,1,1-4-.9A10.49,10.49,0,0,1,455.27,351.42Z" transform="translate(-261 -350.51)" style="fill:#00a2c7"/><path d="M477.92,396.87a10.59,10.59,0,1,1-4-.9A10.49,10.49,0,0,1,477.92,396.87Z" transform="translate(-261 -350.51)" style="fill:#00a2c7"/><path d="M451,396a10.59,10.59,0,1,0,10.59,10.59A10.72,10.72,0,0,0,451,396Zm0,3a8.7,8.7,0,0,1,5.45,2.12,7.29,7.29,0,0,1,2.12,5.45,7.56,7.56,0,0,1-15.13,0c-.3-4.24,3.33-7.56,7.56-7.56" transform="translate(-261 -350.51)" style="fill:#00a2c7"/></svg>