<svg width="45" height="45" viewBox="0 0 45 45" fill="none" xmlns="http://www.w3.org/2000/svg">
<g clip-path="url(#clip0_5_48)">
<path d="M19.2599 38.8179C29.7081 38.8179 38.1782 30.2947 38.1782 19.7808C38.1782 9.26685 29.7081 0.743652 19.2599 0.743652C8.81156 0.743652 0.341553 9.26685 0.341553 19.7808C0.341553 30.2947 8.81156 38.8179 19.2599 38.8179Z" fill="white"/>
<path opacity="0.4" d="M41.4258 44.6452C40.6909 44.6214 39.9921 44.3191 39.4694 43.7987L34.9893 38.562C34.0288 37.6836 33.9502 36.1908 34.8132 35.2152C35.2171 34.8065 35.7663 34.5767 36.3392 34.5767C36.912 34.5767 37.4612 34.8065 37.8652 35.2152L43.4996 39.7235C44.3112 40.5542 44.5616 41.7874 44.139 42.8719C43.7163 43.9564 42.6996 44.6896 41.5432 44.7437L41.4258 44.6452Z" fill="white"/>
</g>
<defs>
<clipPath id="clip0_5_48">
<rect width="45" height="45" fill="white"/>
</clipPath>
</defs>
</svg>
