<svg xmlns="http://www.w3.org/2000/svg" width="38" height="38" fill="none">
    <rect width="38" height="38" fill="#000" rx="19" />
    <g fill="#fff" clip-path="url(#a)">
        <path
            d="M29.206 23.626c0 2.937-2.375 5.317-5.333 5.327H13.357c-2.947 0-5.354-2.369-5.354-5.306v-.01s.006-4.661.015-7.005a.529.529 0 0 1 .856-.413c2.52 1.985 7.024 5.604 7.08 5.651a4.33 4.33 0 0 0 2.682.938c.976 0 1.93-.338 2.683-.95.056-.036 4.46-3.546 7.017-5.564a.53.53 0 0 1 .86.41c.01 2.327.01 6.922.01 6.922Z"
            opacity=".4" />
        <path
            d="M28.65 12.816A5.343 5.343 0 0 0 23.935 10h-10.58a5.343 5.343 0 0 0-4.714 2.816.905.905 0 0 0 .234 1.135l7.872 6.253a3.01 3.01 0 0 0 1.887.662H18.656a3.01 3.01 0 0 0 1.888-.662l7.871-6.253a.905.905 0 0 0 .234-1.136Z" />
    </g>
    <defs>
        <clipPath id="a">
            <path fill="#fff" d="M8.003 10h22v19h-22z" />
        </clipPath>
    </defs>
</svg>