<svg xmlns="http://www.w3.org/2000/svg" width="38" height="38" fill="none">
    <rect width="38" height="38" fill="#000" rx="19" />
    <path fill="#fff"
        d="M29.387 25.252a2.107 2.107 0 0 1-.522 3.359 7.543 7.543 0 0 1-5.476.642C18.503 28.023 11.48 21 10.25 16.113a7.544 7.544 0 0 1 .642-5.475 2.108 2.108 0 0 1 3.359-.522l2.085 2.084a2.094 2.094 0 0 1 .445 2.328c-.186.435-.45.832-.778 1.172-2.384 2.384 5.417 10.185 7.8 7.8.34-.33.738-.595 1.173-.781a2.092 2.092 0 0 1 2.328.445l2.083 2.088Z" />
</svg>