<svg width="15" height="15" viewBox="0 0 15 15" fill="none" xmlns="http://www.w3.org/2000/svg">
<g id="Group">
<path id="Vector" d="M14.6092 14.6232C14.5109 14.3947 14.3968 14.1812 14.2862 13.9747L14.2556 13.9175L11.6537 11.2658C11.5928 11.2033 11.5313 11.1412 11.4699 11.0792C11.3598 10.968 11.2496 10.8567 11.1421 10.7428L10.9027 10.5033L14.7295 6.61717L14.4498 6.33317C12.9544 4.8145 10.6872 4.24683 8.6474 4.87333L7.60354 3.8135C7.72976 2.51267 7.2725 1.1985 6.37209 0.284333L6.09291 0L0 6.187L0.280002 6.471C1.18057 7.3855 2.47406 7.8495 3.75557 7.7215L4.79942 8.7815C4.18263 10.8525 4.74148 13.155 6.23685 14.6735L6.51636 14.9575L10.3432 11.0715L10.5792 11.3145C10.6906 11.4233 10.7998 11.5347 10.9089 11.646C10.9701 11.7083 11.0312 11.7707 11.0922 11.832L13.6689 14.4487L13.7618 14.5073C13.9651 14.6195 14.1754 14.7355 14.4004 14.8353L14.7715 15L14.6092 14.6232Z" fill="white"/>
</g>
</svg>
