<svg xmlns="http://www.w3.org/2000/svg" width="38" height="38" fill="none">
    <g clip-path="url(#a)">
        <rect width="38" height="38" fill="#000" rx="19" />
        <path fill="#fff"
            d="M19 6C12.925 6 8 11.103 8 17.399c0 2.81.986 5.378 2.613 7.366L19 35l8.387-10.235A11.591 11.591 0 0 0 30 17.398C30 11.103 25.075 6 19 6Zm0 15.694c-2.498 0-4.524-2.099-4.524-4.688 0-2.589 2.026-4.688 4.524-4.688 2.499 0 4.524 2.1 4.524 4.688 0 2.59-2.025 4.688-4.524 4.688Z" />
    </g>
    <defs>
        <clipPath id="a">
            <rect width="38" height="38" fill="#fff" rx="19" />
        </clipPath>
    </defs>
</svg>