<svg width="42" height="42" viewBox="0 0 42 42" fill="none" xmlns="http://www.w3.org/2000/svg">
<g opacity="0.84992" clip-path="url(#clip0_3_1449)">
<path opacity="0.4" d="M30.7177 0H11.3708C4.32049 0 0.325928 3.99456 0.325928 11.0448V30.3733C0.325928 37.4237 4.32049 41.4183 11.3708 41.4183H30.7177C37.768 41.4183 41.7441 37.4237 41.7441 30.3733V11.0448C41.7441 3.99456 37.768 0 30.7177 0Z" fill="white"/>
<path d="M11.4439 15.2605C10.5051 15.2605 9.73193 16.0336 9.73193 16.9908V31.2203C9.73193 32.1591 10.5051 32.9322 11.4439 32.9322C12.4011 32.9322 13.1743 32.1591 13.1743 31.2203V16.9908C13.1743 16.0336 12.4011 15.2605 11.4439 15.2605Z" fill="white"/>
<path d="M21.1083 8.46777C20.1695 8.46777 19.3964 9.24092 19.3964 10.1982V31.2201C19.3964 32.159 20.1695 32.9322 21.1083 32.9322C22.0655 32.9322 22.8386 32.159 22.8386 31.2201V10.1982C22.8386 9.24092 22.0655 8.46777 21.1083 8.46777Z" fill="white"/>
<path d="M30.6437 22.771C29.6865 22.771 28.9133 23.5442 28.9133 24.5014V31.2203C28.9133 32.1592 29.6865 32.9323 30.6253 32.9323C31.5825 32.9323 32.3557 32.1592 32.3557 31.2203V24.5014C32.3557 23.5442 31.5825 22.771 30.6437 22.771Z" fill="white"/>
</g>
<defs>
<clipPath id="clip0_3_1449">
<rect width="42" height="42" fill="white"/>
</clipPath>
</defs>
</svg>
